<svg xmlns="http://www.w3.org/2000/svg" viewBox="0 0 41.053 61.077"><defs><style>.a{fill:#fff;stroke:#12aef7;}</style></defs><g transform="translate(-84.827 0.501)"><path class="a" d="M1.252,60.077A1.251,1.251,0,0,1,0,58.825v-15.6a11.617,11.617,0,0,1,6.211-10.4l8.808-4.569V26.192a10.021,10.021,0,0,1-5.006-8.669V10.013a10.013,10.013,0,1,1,20.026,0v7.509a10.022,10.022,0,0,1-5.006,8.669v2.066l8.807,4.569a11.616,11.616,0,0,1,6.211,10.4v15.6A1.252,1.252,0,0,1,38.8,60.077ZM33.8,50.065v7.51H37.55V43.225a9.133,9.133,0,0,0-4.861-8.18l-1.4-.724v3.385a5.009,5.009,0,0,1,3.754,4.849v3.755h-2.5V42.555a2.5,2.5,0,0,0-5.006,0v3.755h-2.5V42.555a5.01,5.01,0,0,1,3.755-4.849V33.023l-1.253-.649v2.671a1.251,1.251,0,0,1-.606,1.073l-5.651,3.391V57.575H31.292v-7.51Zm-25.032,0v7.51H18.775V39.508l-5.65-3.39a1.252,1.252,0,0,1-.607-1.073V32.374l-1.251.649v7.243a3.754,3.754,0,1,1-2.5,0V34.32l-1.4.725A9.129,9.129,0,0,0,2.5,43.225v14.35H6.26v-7.51Zm0-6.258a1.251,1.251,0,1,0,1.251-1.251A1.252,1.252,0,0,0,8.763,43.807Zm6.258-12.73v3.261L17.6,35.883l-1.928-5.142Zm7.441,4.8,2.571-1.542V31.077l-.644-.334Zm-2.434-.644,2.5-6.667V27.219a10.017,10.017,0,0,1-5.005,0v1.34ZM12.517,13.715v3.808a7.509,7.509,0,1,0,15.019,0V13.75c-2.588-.071-7.789-.4-10.75-1.887C16.129,12.678,14.879,13.5,12.517,13.715Zm4.636-4.591c1.392,1.394,6.658,2.006,10.382,2.12V10.013a7.509,7.509,0,0,0-15.019,0V11.2c1.844-.21,2.454-.874,2.5-1.257a1.2,1.2,0,0,1,.773-1.125,1.243,1.243,0,0,1,.451-.083A1.261,1.261,0,0,1,17.154,9.124Z" transform="translate(85.327 -0.001)"/></g></svg>