<svg xmlns="http://www.w3.org/2000/svg" viewBox="0 0 16.567 11.597"><defs><style>.a{fill:#a5abb4;}</style></defs><g transform="translate(0 -4.179)"><g transform="translate(0 4.179)"><path class="a" d="M2,4.864,7.968,9.591a1.518,1.518,0,0,0,1.006.291,1.514,1.514,0,0,0,1.005-.291l5.967-4.727c.478-.376.37-.685-.237-.685H2.239C1.631,4.179,1.523,4.488,2,4.864Z" transform="translate(-0.69 -4.179)"/><path class="a" d="M15.687,7.3,9.166,12.253a1.583,1.583,0,0,1-1.763,0L.88,7.3C.4,6.935,0,7.132,0,7.739v8.123a1.108,1.108,0,0,0,1.1,1.1H15.463a1.108,1.108,0,0,0,1.1-1.1V7.739C16.567,7.132,16.171,6.935,15.687,7.3Z" transform="translate(0 -5.37)"/></g></g></svg>