<svg xmlns="http://www.w3.org/2000/svg" viewBox="0 0 13.127 13.097"><defs><style>.a{fill:#a5abb4;}</style></defs><g transform="translate(0 -0.394)"><g transform="translate(0 0.394)"><g transform="translate(0 0)"><path class="a" d="M12.832,10.753,10.8,8.725a1.057,1.057,0,0,0-1.49.028L8.293,9.774l-.2-.112A10.164,10.164,0,0,1,5.635,7.886a10.22,10.22,0,0,1-1.78-2.461c-.038-.068-.074-.134-.11-.2l.685-.684.337-.337a1.056,1.056,0,0,0,.027-1.49L2.767.688a1.056,1.056,0,0,0-1.49.028L.706,1.29l.016.015a3.3,3.3,0,0,0-.471.83,3.443,3.443,0,0,0-.209.842c-.268,2.219.746,4.247,3.5,7,3.8,3.8,6.87,3.517,7,3.5a3.425,3.425,0,0,0,.845-.212,3.293,3.293,0,0,0,.827-.469l.012.011.579-.567A1.058,1.058,0,0,0,12.832,10.753Z" transform="translate(0 -0.394)"/></g></g></g></svg>