<svg xmlns="http://www.w3.org/2000/svg" viewBox="0 0 14.3 14.3"><defs><style>.a{fill:#a5abb4;}</style></defs><g transform="translate(-0.001)"><g transform="translate(0.001)"><path class="a" d="M7.151,0A7.15,7.15,0,1,0,14.3,7.15,7.15,7.15,0,0,0,7.151,0Zm.494,8.024a.482.482,0,0,1-.006.056c0,.014,0,.029-.006.042s-.009.029-.013.043a.506.506,0,0,1-.018.051s0,.006,0,.009a.49.49,0,0,1-.037.065l0,0a.492.492,0,0,1-.052.063l-.016.015a.473.473,0,0,1-.052.043l-.017.012a.5.5,0,0,1-.074.04l-.017.006a.5.5,0,0,1-.066.021L7.239,8.5a.492.492,0,0,1-.089.009l-.018,0A.5.5,0,0,1,7.048,8.5L7.022,8.49a.5.5,0,0,1-.074-.025l-.008,0L4.2,7.169a.495.495,0,0,1,.422-.895l2.036.96V2.967a.494.494,0,1,1,.989,0V8.015h0S7.644,8.021,7.644,8.024Z" transform="translate(-0.001 0)"/></g></g></svg>