<svg xmlns="http://www.w3.org/2000/svg" viewBox="0 0 61.5 61.5"><defs><style>.a{fill:#a5abb4;}</style></defs><path class="a" d="M30.75,0A30.75,30.75,0,1,0,61.5,30.75,30.75,30.75,0,0,0,30.75,0Zm1.319,58.8V53.387a1.319,1.319,0,1,0-2.638,0V58.8A28.1,28.1,0,0,1,2.7,32.069H8.113a1.319,1.319,0,1,0,0-2.638H2.7A28.1,28.1,0,0,1,29.431,2.7V8.113a1.319,1.319,0,0,0,2.638,0V2.7A28.1,28.1,0,0,1,58.8,29.431H53.387a1.319,1.319,0,0,0,0,2.638h5.422A28.1,28.1,0,0,1,32.069,58.8Z"/><g transform="translate(29.431 15.579)"><path class="a" d="M193.716,121.919l-12.6-12.809V95.8a1.319,1.319,0,0,0-2.638,0v13.851a1.319,1.319,0,0,0,.383.923l12.967,13.192a1.32,1.32,0,1,0,1.886-1.847Z" transform="translate(-178.48 -94.48)"/></g></svg>