<svg xmlns="http://www.w3.org/2000/svg" viewBox="0 0 215.46 53.453"><defs><style>.a{fill:#d3dae3;}</style></defs><g transform="translate(0 -0.067)"><g transform="translate(0 0.067)"><path class="a" d="M214.339,20.556H122.531a1.147,1.147,0,0,0-1.051.739l-2.241,5.673-2.6-11.242a1.127,1.127,0,0,0-1.109-.878,1.147,1.147,0,0,0-1.109.9l-6.378,29.139L104.148,1.1a1.145,1.145,0,0,0-2.172-.381L93.172,20.5H1.132a1.132,1.132,0,0,0,0,2.265H93.911a1.116,1.116,0,0,0,1.04-.659l7.314-16.453,4.159,46.829a1.14,1.14,0,0,0,1.063,1.04h.069a1.137,1.137,0,0,0,1.109-.89l6.886-31.462,2.276,9.856a1.13,1.13,0,0,0,1.017.878,1.164,1.164,0,0,0,1.144-.739l3.3-8.342h91.034a1.134,1.134,0,0,0,1.132-1.132A1.117,1.117,0,0,0,214.339,20.556Z" transform="translate(0 -0.067)"/></g></g></svg>