<svg xmlns="http://www.w3.org/2000/svg" viewBox="0 0 43 43"><defs><style>.a{fill:#fff;stroke:#12aef7;stroke-width:2px;}.b{fill:#12aef7;}.c{stroke:none;}.d{fill:none;}</style></defs><g transform="translate(-140 -2121)"><g class="a" transform="translate(140 2121)"><circle class="c" cx="21.5" cy="21.5" r="21.5"/><circle class="d" cx="21.5" cy="21.5" r="20.5"/></g><path class="b" d="M.219,11.025A.705.705,0,0,1,.219,10L1.24,8.982a.705.705,0,0,1,1.021,0l.073.073,4.013,4.3a.353.353,0,0,0,.511,0L16.634,3.219h.073a.705.705,0,0,1,1.021,0L18.75,4.24a.705.705,0,0,1,0,1.021h0L7.077,17.372a.705.705,0,0,1-1.021,0L.365,11.244l-.146-.219Z" transform="translate(152 2132)"/></g></svg>