<svg xmlns="http://www.w3.org/2000/svg" viewBox="0 0 51.574 51.574"><defs><style>.a{fill:#fff;stroke:#12aef7;stroke-width:0.3px;}</style></defs><g transform="translate(0.15 0.15)"><g transform="translate(12.318 8.312)"><path class="a" d="M124,83a1,1,0,1,0,1,1A1,1,0,0,0,124,83Z" transform="translate(-123 -83)"/></g><path class="a" d="M25.637,0A26.072,26.072,0,0,0,0,25.637,26.071,26.071,0,0,0,25.637,51.274,26.072,26.072,0,0,0,51.274,25.637,26.071,26.071,0,0,0,25.637,0Zm0,49.271A23.951,23.951,0,0,1,2,25.637,23.951,23.951,0,0,1,25.637,2,23.951,23.951,0,0,1,49.271,25.637,23.951,23.951,0,0,1,25.637,49.271Z"/><g transform="translate(4.306 4.306)"><path class="a" d="M64.331,43a22.406,22.406,0,0,0-9.32,2.033,1,1,0,1,0,.862,1.808A20.336,20.336,0,0,1,64.331,45,19.055,19.055,0,1,1,49.82,51.39a1,1,0,1,0-1.5-1.332A21.438,21.438,0,1,0,64.331,43Z" transform="translate(-43 -43)"/></g><g transform="translate(12.618 12.618)"><path class="a" d="M151.036,134.012h-7.01V127a1,1,0,0,0-1-1h-8.012a1,1,0,0,0-1,1v7.01H127a1,1,0,0,0-1,1v8.012a1,1,0,0,0,1,1h7.01v7.01a1,1,0,0,0,1,1h8.012a1,1,0,0,0,1-1v-7.01h7.01a1,1,0,0,0,1-1v-8.012A1,1,0,0,0,151.036,134.012Zm-1,8.012h-7.01a1,1,0,0,0-1,1v7.01h-6.009v-7.01a1,1,0,0,0-1-1H128v-6.009h7.01a1,1,0,0,0,1-1V128h6.009v7.01a1,1,0,0,0,1,1h7.01Z" transform="translate(-126 -126)"/></g></g></svg>