<svg xmlns="http://www.w3.org/2000/svg" xmlns:xlink="http://www.w3.org/1999/xlink" viewBox="0 0 63.861 53.955"><defs><style>.a{fill:url(#a);}</style><linearGradient id="a" x1="0.5" x2="0.5" y2="1" gradientUnits="objectBoundingBox"><stop offset="0" stop-color="#ed1c24"/><stop offset="1" stop-color="#f50"/></linearGradient></defs><g transform="translate(0.001 -37.462)"><g transform="translate(9.906 37.462)"><g transform="translate(0 0)"><path class="a" d="M128.572,76.925a1.07,1.07,0,0,0-1.481,0L121.5,82.517l-4.852-4.838,5.486-5.5a1.061,1.061,0,0,0,0-1.494L100.481,49.072a7.414,7.414,0,0,0-5.261-2.208h-.053a7.94,7.94,0,0,0-5.288,2.287l-.859.872L76.739,37.769a1.056,1.056,0,0,0-1.494,1.494L87.513,51.531l-.648.648a7.508,7.508,0,0,0,0,10.6l2.512,2.512,11.977,11.977,7.1,7.1a1.061,1.061,0,0,0,1.494,0l5.208-5.208,4.852,4.852L114.4,89.616a1.056,1.056,0,0,0,1.494,1.494l12.691-12.691A1.05,1.05,0,0,0,128.572,76.925Zm-14.171,0-5.208,5.208-5.605-5.605,3.556-3.556a1.056,1.056,0,0,0-1.494-1.494l-3.543,3.556-4.495-4.481,6.636-6.57a1.056,1.056,0,1,0-1.467-1.52l-.013.013-6.636,6.57-4.495-4.495L95.193,61A1.056,1.056,0,0,0,93.7,59.5l-3.556,3.556-1.758-1.771a5.386,5.386,0,0,1,0-7.614L91.4,50.658l.013-.013a5.339,5.339,0,0,1,7.535-.132l.066.066,20.9,20.834Z" transform="translate(-74.938 -37.462)"/></g></g><g transform="translate(-0.001 50.722)"><g transform="translate(0)"><path class="a" d="M13.333,143.18,8.561,138.1a1.05,1.05,0,0,0-1.494-.04l-.04.04L2.255,143.18a8.559,8.559,0,0,0,0,11.58,7.453,7.453,0,0,0,5.5,2.419h.026a7.563,7.563,0,0,0,5.552-2.419A8.491,8.491,0,0,0,13.333,143.18ZM11.8,153.306a5.485,5.485,0,0,1-4.019,1.758H7.768a5.356,5.356,0,0,1-3.979-1.758,6.409,6.409,0,0,1-.013-8.685l4.005-4.257,4.019,4.257A6.382,6.382,0,0,1,11.8,153.306Z" transform="translate(0.001 -137.771)"/></g></g></g></svg>