<svg xmlns="http://www.w3.org/2000/svg" viewBox="0 0 77.907 55.386"><defs><style>.a{fill:#a5abb4;}</style></defs><g transform="translate(0 -4.482)"><g transform="translate(13.569 31.185)"><path class="a" d="M34.565,31.186a1.244,1.244,0,0,1-.859-.342L19.251,17.283a1.256,1.256,0,1,1,1.721-1.829L35.427,29.015a1.256,1.256,0,0,1-.862,2.17Z" transform="translate(14.943 -15.111)"/><path class="a" d="M6.659,31.184a1.256,1.256,0,0,1-.862-2.17l14.46-13.561a1.256,1.256,0,1,1,1.721,1.829L7.518,30.842A1.244,1.244,0,0,1,6.659,31.184Z" transform="translate(-5.402 -15.11)"/></g><path class="a" d="M71.626,59.867H6.28A6.288,6.288,0,0,1,0,53.587V10.762a6.288,6.288,0,0,1,6.28-6.28H71.626a6.288,6.288,0,0,1,6.28,6.28V53.587A6.288,6.288,0,0,1,71.626,59.867ZM6.28,6.994a3.773,3.773,0,0,0-3.768,3.768V53.587A3.773,3.773,0,0,0,6.28,57.355H71.626a3.773,3.773,0,0,0,3.768-3.768V10.762a3.773,3.773,0,0,0-3.768-3.768Z" transform="translate(0 0)"/><path class="a" d="M37.958,37.282a7.025,7.025,0,0,1-4.612-1.663L1.089,7.48A1.256,1.256,0,1,1,2.74,5.586L35,33.722a4.7,4.7,0,0,0,5.921,0L73.133,5.631a1.257,1.257,0,1,1,1.653,1.894L42.57,35.616A7.019,7.019,0,0,1,37.958,37.282Z" transform="translate(0.996 1.205)"/></g></svg>