<svg xmlns="http://www.w3.org/2000/svg" xmlns:xlink="http://www.w3.org/1999/xlink" viewBox="0 0 54.004 54.004"><defs><style>.a{fill:url(#a);}</style><linearGradient id="a" x1="0.5" x2="0.5" y2="1" gradientUnits="objectBoundingBox"><stop offset="0" stop-color="#ed1c24"/><stop offset="1" stop-color="#f50"/></linearGradient></defs><g transform="translate(-0.002)"><g transform="translate(10.128 38.253)"><rect class="a" width="4.5" height="2.25"/></g><g transform="translate(10.128 42.753)"><rect class="a" width="6.751" height="2.25"/></g><g transform="translate(0.002)"><g transform="translate(0)"><path class="a" d="M52.994,48.112,40.505,35.622V7.876A3.375,3.375,0,0,0,37.13,4.5H14.515A5.627,5.627,0,0,0,3.49,4.5H3.377A3.375,3.375,0,0,0,0,7.876V50.629A3.375,3.375,0,0,0,3.377,54H37.13a3.375,3.375,0,0,0,3.375-3.375V45.384l7.609,7.608a3.45,3.45,0,1,0,4.879-4.879ZM9,2.25A3.376,3.376,0,0,1,12.185,4.5H5.82A3.376,3.376,0,0,1,9,2.25ZM38.255,50.629a1.125,1.125,0,0,1-1.125,1.125H3.377a1.125,1.125,0,0,1-1.125-1.125V7.876A1.125,1.125,0,0,1,3.377,6.751h9V19.127a1.125,1.125,0,0,1-2.25,0V9H7.878V19.127a3.375,3.375,0,0,0,6.751,0V6.751h22.5a1.125,1.125,0,0,1,1.125,1.125v25.5L34.88,30V10.126A1.125,1.125,0,0,0,33.755,9H16.878v2.25H32.63V27.992l-6.248-3.117a1.116,1.116,0,0,0-1.176.1l0,0-3.193,2.392-1.8-6.3a1.125,1.125,0,0,0-1.878-.487l-3.046,3.046H6.753a1.125,1.125,0,0,0-1.125,1.125V48.379A1.125,1.125,0,0,0,6.753,49.5h27a1.125,1.125,0,0,0,1.125-1.125v-8.62l3.375,3.375Zm-8.778-20.07-1.085-2.167,2.168,1.084Zm3.153,6.95v9.745H7.878V25.877h7.876a1.125,1.125,0,0,0,.794-.327l2.025-2.025L20.3,29.561a1.125,1.125,0,0,0,1.757.592l3.42-2.565,2.688,5.378h0a1.122,1.122,0,0,0,.209.289Zm-1.87-5.051,1.7-1.7L47.322,45.62l-1.7,1.7ZM51.405,51.4a1.2,1.2,0,0,1-1.7,0l-2.492-2.492,1.7-1.7L51.405,49.7A1.2,1.2,0,0,1,51.405,51.4Z" transform="translate(-0.002)"/></g></g></g></svg>