<svg xmlns="http://www.w3.org/2000/svg" viewBox="0 0 49.392 49.392"><defs><style>.a{fill:#fff;stroke:#12aef7;stroke-width:0.6px;}</style></defs><g transform="translate(0.298 0.3)"><g transform="translate(9.15 34.561)"><rect class="a" width="4.066" height="2.033"/></g><g transform="translate(9.15 38.627)"><rect class="a" width="6.099" height="2.033"/></g><g transform="translate(0.002)"><g transform="translate(0)"><path class="a" d="M47.879,43.469,36.6,32.184V7.116a3.05,3.05,0,0,0-3.049-3.049H13.115a5.084,5.084,0,0,0-9.961,0h-.1A3.05,3.05,0,0,0,0,7.116V45.742a3.05,3.05,0,0,0,3.049,3.049H33.546A3.05,3.05,0,0,0,36.6,45.742V41l6.875,6.874a3.117,3.117,0,1,0,4.409-4.409ZM8.134,2.033a3.05,3.05,0,0,1,2.875,2.033H5.259A3.05,3.05,0,0,1,8.134,2.033ZM34.563,45.742a1.017,1.017,0,0,1-1.017,1.017H3.051a1.017,1.017,0,0,1-1.017-1.017V7.116A1.017,1.017,0,0,1,3.051,6.1h8.132V17.28a1.017,1.017,0,0,1-2.033,0V8.132H7.118V17.28a3.049,3.049,0,0,0,6.1,0V6.1h20.33a1.017,1.017,0,0,1,1.017,1.017V30.151L31.514,27.1V9.148A1.017,1.017,0,0,0,30.5,8.132H15.249v2.033H29.48V25.29l-5.645-2.816a1.009,1.009,0,0,0-1.063.095l0,0-2.885,2.161L18.26,19.035a1.017,1.017,0,0,0-1.7-.44l-2.752,2.752H6.1a1.017,1.017,0,0,0-1.017,1.017V43.709A1.017,1.017,0,0,0,6.1,44.726H30.5a1.017,1.017,0,0,0,1.017-1.017V35.921l3.049,3.049ZM26.632,27.609l-.98-1.958,1.958.979Zm2.848,6.279v8.8H7.118V23.379h7.116a1.017,1.017,0,0,0,.718-.3l1.83-1.83,1.557,5.454a1.016,1.016,0,0,0,1.588.535l3.09-2.317,2.429,4.859h0a1.014,1.014,0,0,0,.188.261Zm-1.689-4.564,1.536-1.536L42.755,41.217l-1.536,1.536ZM46.444,46.442a1.086,1.086,0,0,1-1.536,0l-2.251-2.251,1.536-1.536,2.251,2.251A1.086,1.086,0,0,1,46.444,46.442Z" transform="translate(-0.002)"/></g></g></g></svg>