<svg xmlns="http://www.w3.org/2000/svg" viewBox="0 0 38.071 57.971"><defs><style>.a{fill:#fff;stroke:#12aef7;stroke-width:0.3px;}</style></defs><g transform="translate(-88.185 0.15)"><g transform="translate(88.335 17.244)"><g transform="translate(0)"><path class="a" d="M126.106,182.027V166.244a16.571,16.571,0,0,0-2.223-8.293.845.845,0,1,0-1.462.847,14.879,14.879,0,0,1,2,7.447v15.783a.846.846,0,0,1-.845.845H119.6l-.258-1.665c0-.008,0-.016,0-.025h2.549a.845.845,0,0,0,.845-.845V166.244a13.239,13.239,0,0,0-11.847-13.151.845.845,0,1,0-.174,1.681,11.549,11.549,0,0,1,10.332,11.47v13.249h-2.253a5.573,5.573,0,0,0-10.473,1.69h-1.546a5.313,5.313,0,0,1-5.3-5.181h6.417a.845.845,0,0,0,.845-.845v-3.6a.845.845,0,0,0-.845-.845H93.347a.845.845,0,0,0-.845.845v3.6a.845.845,0,0,0,.845.845h6.424a7,7,0,0,0,6.994,6.871h1.284l-.585,3.773H89.18a.845.845,0,0,0-.845.845v5.181a.845.845,0,0,0,.845.845h35.369a.845.845,0,0,0,.845-.845V187.49a.845.845,0,0,0-.845-.845h-4.368l-.323-2.084h3.714A2.537,2.537,0,0,0,126.106,182.027Zm-31.914-7.716V172.4h12.841v1.915Zm15.786,7.143a3.886,3.886,0,0,1,7.688.006l.8,5.185h-9.3Zm13.725,6.881v3.492H90.025v-3.492H123.7Z" transform="translate(-88.335 -153.089)"/></g></g><g transform="translate(93.056)"><g transform="translate(0)"><path class="a" d="M158.933,19.192A16.645,16.645,0,0,0,146.7,13.8H145.36V10.1a.845.845,0,0,0-.845-.845H142.4V1.69h2.116a.845.845,0,0,0,0-1.69H131.091a.845.845,0,0,0,0,1.69h2.116V9.255h-2.116a.845.845,0,0,0-.845.845V25.427a.845.845,0,0,0,.845.845H132v2.677a.845.845,0,0,0,.845.845h2.971a.845.845,0,0,0,.845-.845V26.272h2.28v2.677a.845.845,0,0,0,.845.845h2.971a.845.845,0,0,0,.845-.845V26.272h.911a.845.845,0,0,0,.845-.845V15.488H146.7a14.951,14.951,0,0,1,10.991,4.846.845.845,0,1,0,1.246-1.142ZM134.9,1.69h5.812V9.255H134.9Zm.076,26.414h-1.282V26.272h1.282Zm6.941,0h-1.282V26.272h1.282Zm1.756-3.521H131.936V10.945H143.67Z" transform="translate(-130.246)"/></g></g><g transform="translate(111.288 43.648)"><g transform="translate(0)"><path class="a" d="M294.642,387.5a2.534,2.534,0,1,0,2.534,2.534A2.537,2.537,0,0,0,294.642,387.5Zm0,3.379a.845.845,0,1,1,.845-.845A.846.846,0,0,1,294.642,390.879Z" transform="translate(-292.108 -387.5)"/></g></g><g transform="translate(98.078 13.314)"><g transform="translate(0)"><path class="a" d="M177.369,118.2a2.534,2.534,0,1,0,2.534,2.534A2.537,2.537,0,0,0,177.369,118.2Zm0,3.379a.845.845,0,1,1,.845-.845A.846.846,0,0,1,177.369,121.582Z" transform="translate(-174.835 -118.203)"/></g></g></g></svg>