<svg xmlns="http://www.w3.org/2000/svg" xmlns:xlink="http://www.w3.org/1999/xlink" viewBox="0 0 41.915 41.915"><defs><style>.a{fill:url(#a);}</style><linearGradient id="a" x1="0.5" x2="0.5" y2="1" gradientUnits="objectBoundingBox"><stop offset="0" stop-color="#ed1c24"/><stop offset="1" stop-color="#f50"/></linearGradient></defs><path class="a" d="M41.887,34.5a3.216,3.216,0,0,0-1.6-2.383L29.951,26.162a3.245,3.245,0,0,0-3.907.517l-2.037,2.037a1.493,1.493,0,0,1-1.994.111,58.868,58.868,0,0,1-4.7-4.226,58.888,58.888,0,0,1-4.226-4.7,1.493,1.493,0,0,1,.111-1.994l2.037-2.037a3.244,3.244,0,0,0,.517-3.907L9.8,1.623A3.239,3.239,0,0,0,4.7.949L1.633,4.018c-2.142,2.142-2.176,6.06-.1,11.033A48.726,48.726,0,0,0,12.043,29.872,48.725,48.725,0,0,0,26.864,40.38a17.284,17.284,0,0,0,6.491,1.535A6.19,6.19,0,0,0,37.9,40.283l3.069-3.069A3.216,3.216,0,0,0,41.887,34.5ZM29.274,27.339l10.341,5.954a1.881,1.881,0,0,1,.575,2.748L26.447,28.2,27,27.639A1.885,1.885,0,0,1,29.274,27.339ZM7.239,1.375A1.868,1.868,0,0,1,8.623,2.3l5.954,10.341a1.884,1.884,0,0,1-.3,2.269l-.513.513L5.877,1.726a1.859,1.859,0,0,1,1.11-.368,1.917,1.917,0,0,1,.252.017Zm29.7,37.948c-1.7,1.7-5.182,1.63-9.549-.2A47.354,47.354,0,0,1,13,28.912,47.354,47.354,0,0,1,2.789,14.527c-1.826-4.367-1.9-7.847-.2-9.549L4.871,2.7l7.9,13.718-.53.53a2.849,2.849,0,0,0-.209,3.806,60.244,60.244,0,0,0,4.324,4.808,60.277,60.277,0,0,0,4.808,4.324,2.849,2.849,0,0,0,3.806-.209l.483-.483,13.762,7.854Z" transform="translate(-0.001 0)"/></svg>