<svg xmlns="http://www.w3.org/2000/svg" xmlns:xlink="http://www.w3.org/1999/xlink" viewBox="0 0 34.55 48.716"><defs><style>.a{stroke:#fff;fill:url(#a);}</style><linearGradient id="a" x1="0.5" x2="0.5" y2="1" gradientUnits="objectBoundingBox"><stop offset="0" stop-color="#ed1c24"/><stop offset="1" stop-color="#f50"/></linearGradient></defs><g transform="translate(0.5 0.5)"><g transform="translate(0)"><path class="a" d="M92.775,0A16.778,16.778,0,0,0,78.5,25.6L91.82,47.055a1.4,1.4,0,0,0,1.188.661h.011a1.4,1.4,0,0,0,1.188-.68l12.977-21.667A16.779,16.779,0,0,0,92.775,0Zm12.01,23.934-11.8,19.7L80.88,24.123a13.989,13.989,0,1,1,23.9-.189Z" transform="translate(-76)"/></g><g transform="translate(8.388 8.388)"><path class="a" d="M174.388,90a8.388,8.388,0,1,0,8.388,8.388A8.4,8.4,0,0,0,174.388,90Zm0,14a5.61,5.61,0,1,1,5.6-5.61A5.615,5.615,0,0,1,174.388,104Z" transform="translate(-166 -90)"/></g></g></svg>