<svg xmlns="http://www.w3.org/2000/svg" viewBox="0 0 46.862 57.382"><defs><style>.a{fill:#fff;}</style></defs><g transform="translate(-5.5)"><path class="a" d="M44.711,29.648a7.658,7.658,0,0,0-7.585,6.695H26.54V30.484a3.862,3.862,0,0,0,2.4-1.791L41.293,7.8a3.9,3.9,0,0,0-3.352-5.883H35.768A3.343,3.343,0,0,0,32.757,0C31.23,0,27.5,1.173,27.5,3.347s3.734,3.347,5.26,3.347a3.342,3.342,0,0,0,3.3-2.869H37.94a1.984,1.984,0,0,1,1.706,3L27.29,27.719a1.985,1.985,0,0,1-3.419-.01L11.169,6.821a1.984,1.984,0,0,1,1.706-3h2.236a3.344,3.344,0,0,0,3.3,2.869c1.526,0,5.26-1.173,5.26-3.347S19.937,0,18.411,0A3.343,3.343,0,0,0,15.4,1.913H12.876A3.9,3.9,0,0,0,9.529,7.8l12.7,20.889a3.856,3.856,0,0,0,2.4,1.79v5.858H16.02a10.52,10.52,0,1,0,10.52,10.52V38.255H37.126a7.648,7.648,0,1,0,7.585-8.607ZM32.757,4.782c-1.18,0-3.211-.946-3.345-1.435.134-.489,2.165-1.435,3.345-1.435a1.435,1.435,0,1,1,0,2.869ZM18.411,1.913c1.18,0,3.211.946,3.345,1.435-.134.489-2.165,1.435-3.345,1.435a1.435,1.435,0,1,1,0-2.869Zm6.216,44.949a8.607,8.607,0,1,1-8.607-8.607h8.607Zm20.084-3.825A5.738,5.738,0,1,1,50.449,37.3,5.744,5.744,0,0,1,44.711,43.037Z" transform="translate(0)"/><path class="a" d="M46.325,35a3.825,3.825,0,1,0,3.825,3.825A3.829,3.829,0,0,0,46.325,35Zm0,5.738a1.913,1.913,0,1,1,1.913-1.913A1.915,1.915,0,0,1,46.325,40.738Z" transform="translate(-1.614 -1.527)"/></g></svg>